<svg version="1.1" xmlns="http://www.w3.org/2000/svg" xmlns:xlink="http://www.w3.org/1999/xlink" width="94.001" height="57.672" viewBox="0,0,94.001,57.672"><defs><linearGradient x1="194.4995" y1="180" x2="285.5005" y2="180" gradientUnits="userSpaceOnUse" id="color-1"><stop offset="0" stop-color="#016cf8"/><stop offset="1" stop-color="#00a5f7"/></linearGradient><linearGradient x1="194.4995" y1="180" x2="285.5005" y2="180" gradientUnits="userSpaceOnUse" id="color-2"><stop offset="0" stop-color="#0f00dc"/><stop offset="1" stop-color="#0005ff"/></linearGradient></defs><g transform="translate(-192.9995,-151.164)"><g data-paper-data="{&quot;isPaintingLayer&quot;:true}" fill-rule="nonzero" stroke-linejoin="miter" stroke-miterlimit="10" stroke-dasharray="" stroke-dashoffset="0" style="mix-blend-mode: normal"><path d="M285.5005,198.731c0,4.752 -3.854,8.605 -8.605,8.605h-73.792c-4.752,0 -8.604,-3.854 -8.604,-8.605v-37.463c0,-4.752 3.852,-8.604 8.604,-8.604h73.791c4.754,0 8.605,3.852 8.605,8.604v37.463z" fill="url(#color-1)" stroke="url(#color-2)" stroke-width="3" stroke-linecap="butt"/><path d="M200.98126,188.8089v-21.1178h3.30396v8.92069h2.64317h3.35902h2.61563v-8.92069h3.35902v21.1178h-3.35902v-8.92069h-8.61782v8.92069zM222.56136,188.8089v-2.94603h-2.97356v-9.25108h2.97356v-2.97356h9.27862v2.97356h3.02863v9.25108h-3.02863v2.94603zM222.89176,185.53248h8.61782v-8.61782h-8.61782zM238.8522,188.8089v-15.17068h9.30615v2.97356h2.61563v-2.97356h6.36012v2.97356h2.94603v12.19711h-3.27643v-11.89425h-5.69933v11.89425h-3.27643v-11.89425h-5.6718v11.89425zM266.7115,188.8089v-2.94603h-2.97356v-9.25108h2.97356v-2.97356h9.27862v2.97356h3.02863v3.27643h-3.35902v-2.97356h-8.61782v2.64317h6.00219v3.30396h-6.00219v2.6707h8.61782v-3.02863h3.35902v3.33149h-3.02863v2.97356z" fill="#ffffff" stroke="#b5b5b5" stroke-width="0.5" stroke-linecap="square"/></g></g></svg>